<?xml version="1.0" encoding="UTF-8" standalone="no"?>
<!-- Created with Inkscape (http://www.inkscape.org/) -->

<svg
   xmlns:dc="http://purl.org/dc/elements/1.1/"
   xmlns:cc="http://creativecommons.org/ns#"
   xmlns:rdf="http://www.w3.org/1999/02/22-rdf-syntax-ns#"
   xmlns:svg="http://www.w3.org/2000/svg"
   xmlns="http://www.w3.org/2000/svg"
   xmlns:xlink="http://www.w3.org/1999/xlink"
   xmlns:sodipodi="http://sodipodi.sourceforge.net/DTD/sodipodi-0.dtd"
   xmlns:inkscape="http://www.inkscape.org/namespaces/inkscape"
   width="744.09448819"
   height="1052.3622047"
   id="svg3860"
   version="1.1"
   inkscape:version="0.48.2 r9819"
   sodipodi:docname="logo.svg"
   inkscape:export-filename="/home/enigma/sync/src/sepigo/web/images/logo.png"
   inkscape:export-xdpi="60"
   inkscape:export-ydpi="60">
  <defs
     id="defs3862" />
  <sodipodi:namedview
     id="base"
     pagecolor="#ffffff"
     bordercolor="#666666"
     borderopacity="1.0"
     inkscape:pageopacity="0.0"
     inkscape:pageshadow="2"
     inkscape:zoom="6.8962963"
     inkscape:cx="119.76041"
     inkscape:cy="762.63308"
     inkscape:document-units="px"
     inkscape:current-layer="layer1"
     showgrid="false"
     inkscape:window-width="1024"
     inkscape:window-height="746"
     inkscape:window-x="0"
     inkscape:window-y="0"
     inkscape:window-maximized="1" />
  <metadata
     id="metadata3865">
    <rdf:RDF>
      <cc:Work
         rdf:about="">
        <dc:format>image/svg+xml</dc:format>
        <dc:type
           rdf:resource="http://purl.org/dc/dcmitype/StillImage" />
        <dc:title></dc:title>
      </cc:Work>
    </rdf:RDF>
  </metadata>
  <g
     inkscape:label="Layer 1"
     inkscape:groupmode="layer"
     id="layer1">
    <path
       sodipodi:type="inkscape:offset"
       inkscape:radius="3.0307283"
       inkscape:original="M 118.5 254.25 C 117.93141 254.25003 117.38639 254.34376 116.875 254.53125 A 1.1071194 1.1071194 0 0 0 116.84375 254.53125 C 116.3816 254.70657 115.97021 254.93458 115.59375 255.1875 C 115.58174 255.19519 115.57449 255.21099 115.5625 255.21875 C 115.21606 255.44288 114.87363 255.69429 114.5625 256 C 114.55113 256.0108 114.54253 256.02049 114.53125 256.03125 C 114.49742 256.06352 114.47047 256.09318 114.4375 256.125 C 114.3999 256.10649 114.38167 256.04951 114.34375 256.03125 C 114.33668 256.02772 114.31965 256.03481 114.3125 256.03125 C 113.99518 255.87298 113.60581 255.67409 113.125 255.53125 C 113.11525 255.528 113.10351 255.53445 113.09375 255.53125 C 112.63399 255.3806 112.17643 255.28783 111.6875 255.21875 C 111.67755 255.21709 111.66622 255.22038 111.65625 255.21875 C 111.14476 255.13494 110.60546 255.09377 110.0625 255.09375 C 108.68688 255.09377 107.44927 255.29959 106.375 255.6875 C 105.32037 256.06835 104.38618 256.59797 103.625 257.375 C 102.87225 258.14346 102.29616 259.11019 101.9375 260.15625 C 101.57926 261.20112 101.4375 262.3354 101.4375 263.59375 C 101.4375 264.36202 101.54407 265.11381 101.71875 265.8125 C 101.90489 266.49979 102.14245 267.17514 102.5 267.8125 A 1.1071194 1.1071194 0 0 0 102.53125 267.84375 C 102.90796 268.47161 103.37351 269.02802 103.875 269.5 A 1.1071194 1.1071194 0 0 0 103.90625 269.53125 C 104.02876 269.63976 104.1836 269.68442 104.3125 269.78125 C 103.96883 270.08944 103.49493 270.34307 103.25 270.6875 C 102.69724 271.44754 102.4375 272.38716 102.4375 273.375 C 102.4375 273.95676 102.54884 274.47874 102.71875 274.9375 C 102.87827 275.36823 103.08733 275.77871 103.375 276.15625 C 103.38856 276.17405 103.39247 276.20117 103.40625 276.21875 C 102.68808 276.531 102.04332 276.95455 101.5 277.4375 C 100.93747 277.95181 100.48763 278.57116 100.15625 279.28125 C 99.798977 280.04683 99.65625 280.90579 99.65625 281.8125 C 99.65625 283.9227 100.52572 285.75354 102.15625 286.96875 C 103.81728 288.20668 106.13465 288.74999 109.0625 288.75 C 110.94565 288.74999 112.61452 288.57077 114.0625 288.1875 C 115.49776 287.81126 116.70982 287.24772 117.71875 286.5 L 117.75 286.5 C 118.74922 285.76433 119.53712 284.84628 120.03125 283.75 C 120.53386 282.66858 120.78123 281.44799 120.78125 280.15625 C 120.78123 279.18731 120.66298 278.28633 120.375 277.4375 C 120.09027 276.5359 119.60552 275.74549 118.9375 275.09375 C 118.28283 274.42274 117.46126 273.93921 116.5 273.59375 C 115.49499 273.23258 114.34543 273.09375 113.0625 273.09375 L 108.53125 273.09375 C 108.21406 273.09375 107.93505 273.08064 107.6875 273.0625 C 107.66265 273.05926 107.64827 273.06636 107.625 273.0625 C 107.48768 273.03973 107.36754 273.00434 107.28125 272.96875 C 107.26528 272.9603 107.2264 272.94302 107.21875 272.9375 C 107.21365 272.93382 107.19406 272.9147 107.1875 272.90625 C 107.18829 272.90757 107.18811 272.87633 107.1875 272.875 C 107.18376 272.8668 107.15625 272.83034 107.15625 272.6875 C 107.15624 272.51642 107.20459 272.42035 107.25 272.3125 C 107.31804 272.1509 107.38041 272.0107 107.4375 271.9375 C 107.44716 271.92715 107.4589 271.91645 107.46875 271.90625 C 107.58774 271.78303 107.72685 271.66127 107.875 271.5625 C 107.94653 271.51482 108.08215 271.46137 108.1875 271.40625 C 108.21447 271.41048 108.22049 271.40171 108.25 271.40625 A 1.1071194 1.1071194 0 0 0 108.3125 271.40625 C 108.51469 271.42182 108.70179 271.42596 108.875 271.4375 A 1.1071194 1.1071194 0 0 0 108.9375 271.4375 C 109.18204 271.43751 109.37308 271.43113 109.46875 271.4375 A 1.1071194 1.1071194 0 0 0 109.53125 271.4375 L 110.0625 271.4375 C 111.37184 271.43751 112.53846 271.27265 113.59375 270.875 A 1.1071194 1.1071194 0 0 0 113.625 270.875 C 114.64313 270.4823 115.53878 269.91999 116.25 269.1875 L 116.25 269.15625 L 116.28125 269.15625 C 116.97327 268.44043 117.49889 267.58454 117.84375 266.625 C 118.18592 265.65796 118.37498 264.58457 118.375 263.46875 C 118.37498 262.22567 118.20014 261.16027 117.84375 260.25 C 117.84048 260.24123 117.84704 260.2275 117.84375 260.21875 C 117.71413 259.87366 117.47542 259.60222 117.3125 259.28125 C 117.35972 259.2785 117.38952 259.25 117.4375 259.25 C 117.6196 259.25001 117.63458 259.2888 117.5625 259.25 A 1.1071194 1.1071194 0 0 0 117.59375 259.3125 C 117.60017 259.32053 117.62663 259.35028 117.625 259.34375 C 117.64724 259.43276 117.65624 259.48565 117.65625 259.53125 A 1.1071194 1.1071194 0 0 0 118.75 260.625 C 119.22002 260.62503 119.66789 260.57662 120.09375 260.40625 A 1.1071194 1.1071194 0 0 0 120.125 260.40625 C 120.56141 260.21923 120.9036 259.92833 121.15625 259.65625 A 1.1071194 1.1071194 0 0 0 121.1875 259.625 C 121.42899 259.34636 121.62119 259.01025 121.75 258.625 C 121.7524 258.61784 121.74336 258.59796 121.75 258.59375 C 121.86085 258.27184 121.96872 257.8801 121.96875 257.4375 C 121.96872 257.04412 121.89531 256.64712 121.75 256.28125 C 121.7424 256.26212 121.75798 256.23772 121.75 256.21875 L 121.71875 256.21875 C 121.577 255.84041 121.37476 255.48914 121.0625 255.1875 C 121.05547 255.18048 121.03833 255.19441 121.03125 255.1875 C 120.69104 254.85523 120.32362 254.63684 119.9375 254.5 C 119.92847 254.49631 119.91533 254.50362 119.90625 254.5 C 119.48488 254.33204 119.02094 254.25003 118.5 254.25 z M 91.40625 255.15625 C 90.210665 255.15627 89.085959 255.24903 88.03125 255.53125 C 87.005624 255.80574 86.093025 256.21959 85.3125 256.78125 C 85.305079 256.78659 85.288647 256.77588 85.28125 256.78125 L 85.28125 256.8125 C 84.493039 257.37736 83.846995 258.11875 83.40625 258.96875 A 1.1071194 1.1071194 0 0 0 83.375 258.96875 C 82.942272 259.83422 82.749998 260.81806 82.75 261.875 C 82.749998 262.85536 82.877829 263.7639 83.1875 264.5625 C 83.49894 265.34932 83.986671 266.01794 84.5625 266.59375 C 85.132824 267.16409 85.820076 267.71176 86.65625 268.1875 A 1.1071194 1.1071194 0 0 0 86.6875 268.1875 C 87.48376 268.61939 88.415131 269.06447 89.46875 269.53125 A 1.1071194 1.1071194 0 0 0 89.46875 269.5625 C 90.430167 269.97826 91.222683 270.32409 91.8125 270.625 C 92.387604 270.91843 92.813843 271.1976 93.09375 271.4375 C 93.375388 271.67059 93.504895 271.85338 93.5625 272 A 1.1071194 1.1071194 0 0 0 93.59375 272.03125 C 93.679144 272.22341 93.749991 272.52003 93.75 272.875 C 93.749991 273.24688 93.640576 273.60947 93.5 273.9375 L 93.53125 273.9375 C 93.399813 274.23541 93.241646 274.42099 92.96875 274.65625 C 92.735871 274.85585 92.415787 275.0451 92 275.1875 C 91.989613 275.19106 91.97925 275.184 91.96875 275.1875 C 91.564032 275.30928 91.027009 275.40625 90.40625 275.40625 C 89.717306 275.40625 89.241568 275.29057 88.875 275.125 C 88.866607 275.1208 88.852058 275.12924 88.84375 275.125 C 88.44843 274.92344 88.153906 274.65999 87.9375 274.375 C 87.693527 274.0372 87.489669 273.64622 87.375 273.15625 C 87.251951 272.63052 87.187496 272.06136 87.1875 271.4375 A 1.1071194 1.1071194 0 0 0 86.09375 270.34375 C 85.762364 270.34376 85.408412 270.38842 85.03125 270.5 C 85.020385 270.50321 85.010889 270.49669 85 270.5 C 84.561597 270.6236 84.150786 270.82937 83.78125 271.125 A 1.1071194 1.1071194 0 0 0 83.75 271.15625 C 83.360621 271.48416 83.069419 271.89241 82.84375 272.34375 A 1.1071194 1.1071194 0 0 0 82.84375 272.375 C 82.571019 272.94145 82.499998 273.54205 82.5 274.1875 C 82.499998 275.05463 82.677772 275.88313 83.09375 276.59375 A 1.1071194 1.1071194 0 0 0 83.125 276.59375 C 83.51902 277.25045 84.064018 277.85609 84.78125 278.3125 C 85.472581 278.73673 86.291983 279.0593 87.1875 279.25 C 87.197614 279.25215 87.20861 279.24787 87.21875 279.25 C 88.121196 279.44813 89.12315 279.53125 90.1875 279.53125 C 91.463216 279.53125 92.625106 279.38088 93.6875 279.09375 C 94.768199 278.80556 95.734295 278.37504 96.5625 277.75 A 1.1071194 1.1071194 0 0 0 96.59375 277.75 C 97.430929 277.10236 98.057401 276.25943 98.5 275.34375 C 98.960252 274.39146 99.156232 273.32891 99.15625 272.15625 C 99.156232 271.22607 99.042395 270.35853 98.75 269.5625 C 98.466396 268.79053 98.018087 268.0729 97.4375 267.46875 C 97.428118 267.45886 97.415703 267.44735 97.40625 267.4375 C 96.844291 266.85175 96.164384 266.31068 95.34375 265.84375 C 94.539129 265.38596 93.586817 264.92496 92.5 264.46875 A 1.1071194 1.1071194 0 0 0 92.46875 264.46875 C 91.58707 264.10572 90.868208 263.80883 90.25 263.53125 C 89.658315 263.24775 89.202275 262.97919 88.90625 262.75 C 88.646997 262.54261 88.488898 262.34669 88.375 262.125 C 88.371174 262.11708 88.378711 262.10172 88.375 262.09375 C 88.273556 261.87579 88.187497 261.63242 88.1875 261.28125 C 88.187496 260.93143 88.245903 260.64186 88.34375 260.375 C 88.438994 260.11524 88.558643 259.9344 88.71875 259.78125 C 88.892262 259.6222 89.131593 259.4945 89.5 259.375 C 89.852612 259.26065 90.331323 259.15627 90.90625 259.15625 C 91.852712 259.15627 92.26856 259.40244 92.59375 259.84375 A 1.1071194 1.1071194 0 0 0 92.625 259.84375 C 92.993331 260.33203 93.249989 261.12756 93.25 262.3125 A 1.1071194 1.1071194 0 0 0 94.34375 263.40625 C 95.4491 263.40627 96.444697 263.14507 97.1875 262.5 C 97.923729 261.85817 98.31248 260.88054 98.3125 259.90625 C 98.312481 259.26778 98.193723 258.59508 97.84375 257.96875 C 97.496612 257.32935 96.961784 256.82975 96.375 256.4375 C 96.364373 256.43023 96.354447 256.41346 96.34375 256.40625 C 95.73371 255.99494 95.005048 255.68776 94.1875 255.46875 C 93.336306 255.24078 92.423473 255.15627 91.40625 255.15625 z M 109.90625 259.25 C 110.96921 259.25002 111.42095 259.5142 111.75 260.03125 C 112.10343 260.58667 112.40624 261.74974 112.40625 263.4375 C 112.40624 264.26144 112.32815 264.9326 112.21875 265.46875 C 112.12827 265.95126 111.97245 266.29308 111.78125 266.5625 C 111.58871 266.8338 111.415 266.98286 111.15625 267.09375 A 1.1071194 1.1071194 0 0 0 111.15625 267.125 C 110.88074 267.24655 110.45567 267.34376 109.9375 267.34375 C 108.89145 267.34376 108.41621 267.05288 108.0625 266.5625 C 107.72053 266.06561 107.40624 265.03651 107.40625 263.46875 C 107.40624 261.78099 107.69901 260.64236 108.0625 260.0625 C 108.41165 259.51036 108.86168 259.25002 109.90625 259.25 z M 108.375 278.84375 L 112.3125 278.84375 C 112.9042 278.84375 113.42075 278.91847 113.875 279 C 114.25728 279.06862 114.54142 279.1715 114.71875 279.28125 C 114.72672 279.28618 114.74248 279.30759 114.75 279.3125 C 114.90991 279.42682 115.01011 279.557 115.09375 279.75 A 1.1071194 1.1071194 0 0 0 115.125 279.78125 C 115.23241 280.01909 115.31248 280.31983 115.3125 280.8125 C 115.31248 281.38718 115.20485 281.88418 115.03125 282.34375 A 1.1071194 1.1071194 0 0 0 115.03125 282.375 C 114.88155 282.78003 114.61538 283.12585 114.21875 283.4375 C 113.83001 283.74293 113.23424 284.043 112.40625 284.25 C 111.63859 284.45542 110.53889 284.56249 109.15625 284.5625 C 108.2163 284.56249 107.47546 284.44022 106.96875 284.28125 C 106.40287 284.10371 106.0004 283.89204 105.78125 283.6875 C 105.53248 283.45531 105.38666 283.21759 105.28125 282.875 C 105.16442 282.49529 105.09375 282.06971 105.09375 281.5625 C 105.09375 280.88679 105.23253 280.40994 105.375 280.125 C 105.54805 279.77888 105.72608 279.55737 105.9375 279.40625 C 105.94767 279.39898 105.95845 279.38197 105.96875 279.375 C 106.26187 279.18824 106.58731 279.06128 106.9375 279 A 1.1071194 1.1071194 0 0 0 106.96875 279 C 107.43518 278.90899 107.88375 278.84375 108.375 278.84375 z "
       style="font-size:40px;font-style:normal;font-weight:normal;line-height:125%;letter-spacing:0px;word-spacing:0px;fill:#ffffff;fill-opacity:1;stroke:none;font-family:Sans"
       id="path4443"
       d="m 118.5,251.21875 c -0.54093,3e-5 -1.06024,0.16957 -1.59375,0.28125 -0.0304,0.006 -0.0634,-0.007 -0.0937,0 a 3.0310314,3.0310314 0 0 0 -0.96875,0.1875 3.0310314,3.0310314 0 0 0 -0.0625,0 c -0.68597,0.26023 -1.2721,0.60163 -1.78125,0.9375 -0.007,0.005 -0.0243,-0.005 -0.0312,0 -0.0134,0.009 -0.0183,-0.008 -0.0312,0 -0.61783,-0.19468 -1.19458,-0.3257 -1.75,-0.40625 -0.009,-0.001 -0.0219,0.001 -0.0312,0 -0.0102,-0.002 -0.021,0.002 -0.0312,0 -0.68059,-0.10969 -1.37674,-0.15622 -2.0625,-0.15625 -1.6779,2e-5 -3.26722,0.25711 -4.71875,0.78125 -1.36111,0.49153 -2.72812,1.23549 -3.875,2.40625 -0.37237,0.38014 -0.66649,0.82331 -0.96875,1.25 l -0.0312,0 c -0.644195,-1.16678 -1.526856,-1.99043 -2.375,-2.5625 -0.01368,-0.01 -0.0168,0.0101 -0.03125,0 -0.02673,-0.0187 -0.0018,-0.0114 -0.03125,-0.0312 -0.957625,-0.64566 -1.995527,-1.08917 -3.0625,-1.375 -1.193436,-0.31963 -2.377452,-0.40623 -3.5625,-0.40625 -1.352313,2e-5 -2.742012,0.0903 -4.15625,0.46875 -0.982572,0.26297 -1.87124,0.77812 -2.75,1.28125 -0.0082,0.005 -0.02304,-0.005 -0.03125,0 -0.218423,0.12584 -0.478069,0.17049 -0.6875,0.3125 -0.07723,0.0431 -0.107771,0.0667 -0.15625,0.0937 -0.02694,0.019 -0.06698,0.012 -0.09375,0.0312 -0.0015,8.6e-4 9.88e-4,0.0307 0,0.0312 -0.0016,9.2e-4 -0.03123,-1e-5 -0.03125,0 a 3.0310314,3.0310314 0 0 0 -0.625,0.59375 3.0310314,3.0310314 0 0 0 -0.03125,0.0312 c -0.614516,0.54141 -1.143828,1.15733 -1.59375,1.84375 a 3.0310314,3.0310314 0 0 0 -0.53125,0.75 3.0310314,3.0310314 0 0 0 -0.0625,0.0625 c -0.682995,1.36601 -0.937503,2.8255 -0.9375,4.25 -3e-6,1.24382 0.168092,2.52236 0.65625,3.78125 a 3.0310314,3.0310314 0 0 0 0,0.0312 c 0.463436,1.17082 1.160923,2.09944 1.90625,2.875 -0.124952,0.086 -0.286996,0.0921 -0.40625,0.1875 a 3.0310314,3.0310314 0 0 0 -0.0625,0.0937 3.0310314,3.0310314 0 0 0 -0.125,0.0937 c 0.01846,-0.0177 -0.142735,0.14346 -0.125,0.125 l 0.03125,0.0312 C 80.968244,269.68689 80.445901,270.3582 80.125,271 a 3.0310314,3.0310314 0 0 0 -0.3125,1.3125 c 2.55e-4,-0.0181 2.55e-4,0.11185 0,0.0937 l 0.03125,0 c -0.128399,0.61587 -0.375002,1.28657 -0.375,1.78125 -3e-6,1.28136 0.255372,2.66544 1,3.9375 a 3.0310314,3.0310314 0 0 0 1.0625,1.0625 c 0.501082,0.59023 0.908968,1.23185 1.625,1.6875 a 3.0310314,3.0310314 0 0 0 0.03125,0.0312 c 1.017508,0.62439 2.166887,1.05523 3.375,1.3125 1.247298,0.26515 1.251838,0.2564 0.03125,0 1.178163,0.25571 2.382053,0.34375 3.59375,0.34375 1.513873,0 2.938854,-0.16844 4.28125,-0.53125 0.823373,-0.21957 1.564635,-0.72672 2.34375,-1.125 -0.02441,0.29972 -0.1875,0.61501 -0.1875,0.90625 0,2.9427 1.332662,5.81543 3.71875,7.59375 2.40331,1.79114 5.41597,2.37499 8.71875,2.375 2.07543,-10e-6 4.00234,-0.18538 5.78125,-0.65625 1.51437,-0.39698 2.8664,-1.03871 4.09375,-1.84375 a 3.0310314,3.0310314 0 0 0 0.59375,-0.34375 3.0310314,3.0310314 0 0 0 0.0312,0 c 1.34915,-0.9933 2.48848,-2.29877 3.21875,-3.90625 0.004,-0.008 -0.004,-0.023 0,-0.0312 0.701,-1.51974 1.03122,-3.17508 1.03125,-4.84375 -2e-5,-1.19535 -0.16152,-2.41695 -0.5625,-3.625 -0.007,-0.0204 0.007,-0.0422 0,-0.0625 l -0.0312,0 c -0.42814,-1.31847 -1.13743,-2.52633 -2.125,-3.5 -0.006,-0.006 -0.0254,0.006 -0.0312,0 -0.75934,-0.7735 -1.63636,-1.30907 -2.5625,-1.75 a 3.0310314,3.0310314 0 0 0 0.5625,-0.90625 3.0310314,3.0310314 0 0 0 0,-0.0312 c 0.63247,-0.83021 1.2724,-1.64394 1.625,-2.625 a 3.0310314,3.0310314 0 0 0 0,-0.0312 c 0.46031,-1.30094 0.71872,-2.69812 0.71875,-4.15625 0,-0.11116 -0.0602,-0.20215 -0.0625,-0.3125 0.86071,-0.3782 1.4392,-0.89238 1.875,-1.34375 l 0.0312,0.0312 c -0.0185,0.0177 0.14274,-0.14346 0.125,-0.125 a 3.0310314,3.0310314 0 0 0 0.0937,-0.0937 c 0.2657,-0.30658 0.3968,-0.70718 0.59375,-1.0625 a 3.0310314,3.0310314 0 0 0 0.0312,-0.0625 c 0.007,-0.0125 0.0246,-0.0187 0.0312,-0.0312 -2e-5,3e-5 0.0259,-0.0534 0.0312,-0.0625 a 3.0310314,3.0310314 0 0 0 0.34375,-0.5625 3.0310314,3.0310314 0 0 0 0.0312,-0.0625 c 0.0131,-0.0353 0.05,-0.0582 0.0625,-0.0937 0.001,-0.004 -0.002,-0.0255 0,-0.0312 a 3.0310314,3.0310314 0 0 0 0.0312,-0.0625 c 1e-4,-3.1e-4 0.0536,-0.22741 0.0937,-0.40625 -0.0113,0.0512 -0.0418,0.0858 -0.0625,0.15625 0.0153,-0.0471 0.0469,-0.13615 0.0625,-0.1875 0.002,-0.0124 -0.002,-0.0192 0,-0.0312 0.0176,-0.0588 0.0139,-0.1548 0.0312,-0.21875 0.005,-0.0602 0.0297,-0.10619 0.0312,-0.15625 0.004,-0.0857 3.6e-4,-0.0598 0,-0.125 0.0879,-0.38444 0.21872,-0.67173 0.21875,-1.1875 -3e-5,-0.35774 -0.12595,-0.70906 -0.1875,-1.0625 0.0206,-0.24456 -0.0673,-0.62923 -0.21875,-1.09375 -0.0122,-0.0374 -0.0173,-0.0551 -0.0312,-0.0937 -0.004,-0.012 0.005,-0.0191 0,-0.0312 -0.0191,-0.0512 -0.009,-0.0716 -0.0312,-0.125 A 3.0310314,3.0310314 0 0 0 123.875,254.0625 3.0310314,3.0310314 0 0 0 123.8125,254 c -0.20713,-0.32153 -0.32981,-0.64378 -0.625,-0.9375 l 0.0312,-0.0312 c -4e-5,-4e-5 -0.0574,-0.0283 -0.0625,-0.0312 -0.0588,-0.0339 -0.34464,-0.20944 -0.6875,-0.40625 -0.44983,-0.3314 -0.92066,-0.65703 -1.40625,-0.84375 l 0.0312,-0.0625 c -0.0842,-0.0344 -0.0476,0.0266 -0.125,0 -0.0194,-0.007 -0.0123,0.006 -0.0312,0 -0.002,-7e-4 0.002,-0.0306 0,-0.0312 -0.78982,-0.29972 -1.63048,-0.43745 -2.4375,-0.4375 z m -11.03125,30.75 a 3.0310314,3.0310314 0 0 0 0.0625,0 c -0.025,0.01 -0.0446,0.0281 -0.0625,0.0312 l 0,-0.0312 z"
       transform="translate(0.13941701,-0.42675476)"
       inkscape:export-filename="/home/enigma/sync/src/sepigo/web/images/logo.png"
       inkscape:export-xdpi="60"
       inkscape:export-ydpi="60" />
    <path
       sodipodi:type="inkscape:offset"
       inkscape:radius="1.9639772"
       inkscape:original="M 118.5 255.34375 C 118.05727 255.34377 117.64061 255.41929 117.25 255.5625 C 116.87238 255.70575 116.513 255.90367 116.1875 256.125 C 115.86196 256.33336 115.5729 256.5521 115.3125 256.8125 C 115.05207 257.05992 114.8203 257.29169 114.625 257.5 C 114.42967 257.33075 114.16926 257.18752 113.84375 257.03125 C 113.53124 256.87502 113.18488 256.71096 112.78125 256.59375 C 112.39061 256.46356 111.96874 256.37763 111.5 256.3125 C 111.03124 256.2344 110.54426 256.18752 110.0625 256.1875 C 108.79947 256.18752 107.68749 256.38023 106.75 256.71875 C 105.81249 257.05731 105.03124 257.51825 104.40625 258.15625 C 103.78125 258.79429 103.3125 259.58856 103 260.5 C 102.6875 261.41147 102.53125 262.43491 102.53125 263.59375 C 102.53125 264.25783 102.625 264.90626 102.78125 265.53125 C 102.95052 266.15626 103.16927 266.74741 103.46875 267.28125 C 103.78125 267.80209 104.18229 268.27084 104.625 268.6875 C 105.08072 269.09115 105.58333 269.39063 106.15625 269.625 C 105.24479 270.17188 104.57291 270.75782 104.15625 271.34375 C 103.73958 271.91667 103.53125 272.58073 103.53125 273.375 C 103.53125 273.80469 103.61979 274.21094 103.75 274.5625 C 103.8802 274.91407 104.04166 275.22657 104.25 275.5 C 104.45833 275.77344 104.67708 275.99219 104.9375 276.1875 C 105.19791 276.38281 105.47656 276.53906 105.75 276.65625 C 105.08593 276.77344 104.4427 276.95833 103.84375 277.21875 C 103.24479 277.47917 102.71875 277.83333 102.25 278.25 C 101.79427 278.66667 101.42969 279.16406 101.15625 279.75 C 100.88281 280.33594 100.75 281.03125 100.75 281.8125 C 100.75 283.64843 101.43229 285.0651 102.8125 286.09375 C 104.1927 287.12239 106.27604 287.65624 109.0625 287.65625 C 110.87238 287.65624 112.45311 287.47655 113.78125 287.125 C 115.12238 286.77343 116.22134 286.27603 117.09375 285.625 C 117.96613 284.98697 118.61456 284.20572 119.03125 283.28125 C 119.46092 282.35677 119.68748 281.30208 119.6875 280.15625 C 119.68748 279.29687 119.55988 278.51042 119.3125 277.78125 C 119.07811 277.03906 118.69009 276.39583 118.15625 275.875 C 117.6354 275.34115 116.95832 274.92448 116.125 274.625 C 115.29165 274.32552 114.2604 274.1875 113.0625 274.1875 L 108.53125 274.1875 C 108.17968 274.1875 107.84374 274.1823 107.53125 274.15625 C 107.23176 274.11719 106.97135 274.04167 106.75 273.9375 C 106.52864 273.82032 106.3802 273.66407 106.25 273.46875 C 106.13281 273.27344 106.06249 273.01303 106.0625 272.6875 C 106.06249 272.38803 106.11458 272.1224 106.21875 271.875 C 106.32291 271.62761 106.45572 271.38282 106.625 271.1875 C 106.80728 270.99219 107.01562 270.81251 107.25 270.65625 C 107.48437 270.50001 107.73958 270.38022 108 270.25 C 108.10416 270.26303 108.23697 270.28647 108.40625 270.3125 C 108.57551 270.32553 108.74218 270.33074 108.9375 270.34375 C 109.1328 270.34376 109.33593 270.33074 109.53125 270.34375 L 110.0625 270.34375 C 111.27343 270.34376 112.3203 270.1823 113.21875 269.84375 C 114.13019 269.4922 114.8828 269.01824 115.46875 268.40625 C 116.06769 267.79428 116.513 267.08334 116.8125 266.25 C 117.11196 265.40366 117.28123 264.45835 117.28125 263.46875 C 117.28123 262.32293 117.11196 261.38022 116.8125 260.625 C 116.52602 259.85679 116.17446 259.18491 115.71875 258.625 C 115.97915 258.45575 116.22655 258.35939 116.5 258.28125 C 116.77342 258.20314 117.09894 258.15627 117.4375 258.15625 C 117.71092 258.15627 117.92446 258.19012 118.09375 258.28125 C 118.263 258.35939 118.37759 258.48179 118.46875 258.625 C 118.5729 258.75523 118.64842 258.90627 118.6875 259.0625 C 118.72654 259.21877 118.74998 259.37502 118.75 259.53125 C 119.11456 259.53127 119.42706 259.47919 119.6875 259.375 C 119.96092 259.25783 120.17446 259.08856 120.34375 258.90625 C 120.513 258.71096 120.6406 258.49742 120.71875 258.25 C 120.80987 257.9896 120.87498 257.72398 120.875 257.4375 C 120.87498 257.16408 120.8229 256.90367 120.71875 256.65625 C 120.62758 256.39585 120.47654 256.15106 120.28125 255.96875 C 120.08592 255.77346 119.83071 255.63544 119.53125 255.53125 C 119.24477 255.41409 118.90363 255.34377 118.5 255.34375 z M 91.40625 256.25 C 90.273429 256.25002 89.236972 256.34638 88.3125 256.59375 C 87.388015 256.84117 86.601558 257.20575 85.9375 257.6875 C 85.273434 258.15627 84.73958 258.76564 84.375 259.46875 C 84.023435 260.17189 83.843748 260.96356 83.84375 261.875 C 83.843748 262.74741 83.971352 263.51824 84.21875 264.15625 C 84.466143 264.78126 84.848955 265.31772 85.34375 265.8125 C 85.838538 266.3073 86.463537 266.78907 87.21875 267.21875 C 87.986973 267.63543 88.877597 268.07553 89.90625 268.53125 C 90.869783 268.94793 91.674469 269.29949 92.3125 269.625 C 92.95051 269.95053 93.447905 270.28126 93.8125 270.59375 C 94.190092 270.90626 94.450508 271.22917 94.59375 271.59375 C 94.749987 271.94532 94.843737 272.38021 94.84375 272.875 C 94.843737 273.40886 94.72655 273.91927 94.53125 274.375 C 94.335925 274.81771 94.065092 275.17448 93.6875 275.5 C 93.322905 275.8125 92.859364 276.06771 92.3125 276.25 C 91.765615 276.41927 91.122386 276.5 90.40625 276.5 C 89.598951 276.5 88.934889 276.38542 88.375 276.125 C 87.828119 275.85156 87.369786 275.48698 87.03125 275.03125 C 86.692703 274.5625 86.455724 274.01823 86.3125 273.40625 C 86.169266 272.79428 86.093746 272.14063 86.09375 271.4375 C 85.859371 271.43751 85.611975 271.47136 85.3125 271.5625 C 85.026038 271.64063 84.729164 271.79167 84.46875 272 C 84.221352 272.20834 84.026039 272.47917 83.84375 272.84375 C 83.674477 273.19532 83.593748 273.65365 83.59375 274.1875 C 83.593748 274.89063 83.749998 275.4974 84.0625 276.03125 C 84.374997 276.55208 84.80208 277.01042 85.375 277.375 C 85.947913 277.72656 86.630203 277.98698 87.4375 278.15625 C 88.257806 278.33854 89.184888 278.4375 90.1875 278.4375 C 91.372386 278.4375 92.442698 278.29167 93.40625 278.03125 C 94.3828 277.77083 95.216132 277.39583 95.90625 276.875 C 96.596339 276.34115 97.12238 275.65625 97.5 274.875 C 97.877588 274.09375 98.062484 273.19792 98.0625 272.15625 C 98.062484 271.32292 97.953109 270.57553 97.71875 269.9375 C 97.484359 269.29949 97.119776 268.72657 96.625 268.21875 C 96.143215 267.71095 95.536445 267.2422 94.78125 266.8125 C 94.026029 266.38282 93.117176 265.94272 92.0625 265.5 C 91.177074 265.13543 90.419262 264.81772 89.78125 264.53125 C 89.156243 264.23178 88.622389 263.93751 88.21875 263.625 C 87.828119 263.31251 87.557286 262.95835 87.375 262.59375 C 87.192703 262.21616 87.093745 261.78908 87.09375 261.28125 C 87.093745 260.81252 87.169265 260.39064 87.3125 260 C 87.455723 259.60939 87.669265 259.25523 87.96875 258.96875 C 88.281243 258.68231 88.674472 258.46877 89.15625 258.3125 C 89.638013 258.15627 90.229158 258.06252 90.90625 258.0625 C 92.091136 258.06252 92.953114 258.44533 93.5 259.1875 C 94.059884 259.92971 94.343737 260.97137 94.34375 262.3125 C 95.268216 262.31252 95.973944 262.08595 96.46875 261.65625 C 96.976547 261.21356 97.218735 260.63543 97.21875 259.90625 C 97.218735 259.41148 97.122381 258.94273 96.875 258.5 C 96.627589 258.04429 96.244777 257.66929 95.75 257.34375 C 95.255195 257.00523 94.635404 256.72658 93.90625 256.53125 C 93.177072 256.33596 92.35676 256.25002 91.40625 256.25 z M 109.90625 258.15625 C 111.20832 258.15627 112.14061 258.57814 112.6875 259.4375 C 113.23436 260.29689 113.49999 261.64064 113.5 263.4375 C 113.49999 264.30991 113.44269 265.04949 113.3125 265.6875 C 113.1953 266.31251 112.97395 266.81512 112.6875 267.21875 C 112.40103 267.62241 112.04947 267.9297 111.59375 268.125 C 111.15103 268.32032 110.58853 268.43751 109.9375 268.4375 C 108.64843 268.43751 107.72916 268.01303 107.15625 267.21875 C 106.59635 266.42449 106.31249 265.17449 106.3125 263.46875 C 106.31249 261.67189 106.57812 260.34116 107.125 259.46875 C 107.68489 258.58335 108.61718 258.15627 109.90625 258.15625 z M 108.375 277.75 L 112.3125 277.75 C 112.97655 277.75 113.55467 277.8151 114.0625 277.90625 C 114.5703 277.9974 115.00519 278.15365 115.34375 278.375 C 115.6953 278.60937 115.95571 278.92187 116.125 279.3125 C 116.30728 279.71614 116.40623 280.20052 116.40625 280.8125 C 116.40623 281.51562 116.28384 282.16406 116.0625 282.75 C 115.84113 283.34895 115.45311 283.88281 114.90625 284.3125 C 114.35936 284.74218 113.62499 285.07812 112.6875 285.3125 C 111.76301 285.55989 110.58853 285.65624 109.15625 285.65625 C 108.14062 285.65624 107.28906 285.55208 106.625 285.34375 C 105.96093 285.13541 105.42187 284.86458 105.03125 284.5 C 104.64062 284.13541 104.375 283.69531 104.21875 283.1875 C 104.0625 282.67968 104 282.14843 104 281.5625 C 104 280.76823 104.1276 280.11979 104.375 279.625 C 104.62239 279.13021 104.9401 278.74219 105.34375 278.46875 C 105.76041 278.19531 106.22916 277.9974 106.75 277.90625 C 107.28385 277.80208 107.8151 277.75 108.375 277.75 z "
       xlink:href="#text3875"
       style="font-size:40px;font-style:normal;font-weight:normal;line-height:125%;letter-spacing:0px;word-spacing:0px;fill:#000000;fill-opacity:1;stroke:none;font-family:Sans"
       id="path4397"
       inkscape:href="#text3875"
       d="m 118.5,253.375 c -0.66602,3e-5 -1.33261,0.12198 -1.9375,0.34375 -0.53814,0.20414 -1.01453,0.46535 -1.4375,0.75 -0.011,0.007 -0.0203,0.0238 -0.0312,0.0312 -0.26565,0.17166 -0.52043,0.40383 -0.78125,0.625 -0.27311,-0.12774 -0.52675,-0.25931 -0.90625,-0.375 l 0,-0.0312 c -0.0201,-0.007 -0.0424,0.007 -0.0625,0 -0.51653,-0.16698 -1.01838,-0.27142 -1.53125,-0.34375 -0.01,-0.002 -0.0213,0.002 -0.0312,0 -0.5517,-0.0905 -1.12043,-0.15623 -1.71875,-0.15625 -1.46278,2e-5 -2.7886,0.23011 -3.96875,0.65625 -1.14529,0.4136 -2.22713,1.02159 -3.09375,1.90625 -0.85165,0.86942 -1.44936,1.94347 -1.84375,3.09375 -0.39364,1.14813 -0.59375,2.38337 -0.59375,3.71875 0,0.84892 0.12356,1.6505 0.3125,2.40625 a 1.9641736,1.9641736 0 0 0 0,0.0312 c 0.19919,0.7355 0.47249,1.50125 0.875,2.21875 a 1.9641736,1.9641736 0 0 0 0.0312,0.0312 c 0.35463,0.59106 0.80402,1.07855 1.25,1.53125 -0.12032,0.13949 -0.33036,0.2265 -0.4375,0.375 l -0.0312,0 c -0.005,0.008 0.005,0.0237 0,0.0312 -0.64741,0.90129 -1,2.02804 -1,3.15625 0,0.69948 0.1431,1.33326 0.34375,1.875 0.0842,0.22725 0.25923,0.43152 0.375,0.65625 -0.46431,0.27562 -0.96297,0.53653 -1.34375,0.875 a 1.9641736,1.9641736 0 0 0 0,0.0312 c -0.6452,0.5899 -1.186272,1.28755 -1.5625,2.09375 -0.422171,0.90465 -0.59375,1.90242 -0.59375,2.90625 0,2.32251 1.019438,4.48412 2.84375,5.84375 1.87842,1.39996 4.40019,1.96874 7.4375,1.96875 1.93987,-10e-6 3.678,-0.18592 5.21875,-0.59375 1.51172,-0.39629 2.8535,-0.98794 3.96875,-1.8125 0.0106,-0.008 0.0207,-0.0234 0.0312,-0.0312 1.09801,-0.81178 1.97725,-1.86465 2.53125,-3.09375 0.55908,-1.20292 0.84373,-2.53281 0.84375,-3.9375 -2e-5,-1.04304 -0.15581,-2.03547 -0.46875,-2.96875 -0.003,-0.009 0.003,-0.0227 0,-0.0312 l -0.0312,0 c -0.32122,-0.99516 -0.84821,-1.91854 -1.59375,-2.65625 -0.006,-0.006 -0.0251,0.006 -0.0312,0 -0.75525,-0.7675 -1.69831,-1.34079 -2.75,-1.71875 -1.1379,-0.40893 -2.36999,-0.5625 -3.71875,-0.5625 l -2.4375,0 c 1.15769,-0.0471 2.27686,-0.15278 3.28125,-0.53125 a 1.9641736,1.9641736 0 0 0 0.0312,0 c 1.11739,-0.43099 2.09271,-1.09427 2.90625,-1.9375 l 0.0312,0.0312 c 0.006,-0.006 -0.006,-0.0249 0,-0.0312 0.78137,-0.80388 1.39548,-1.77038 1.78125,-2.84375 0.37523,-1.06048 0.59373,-2.22397 0.59375,-3.4375 -1e-5,-0.75139 -0.21713,-1.34314 -0.34375,-2 0.50106,-0.0134 0.99845,-0.0806 1.5,-0.28125 a 1.9641736,1.9641736 0 0 0 0.0625,0 c 0.56258,-0.24109 0.99531,-0.59592 1.3125,-0.9375 a 1.9641736,1.9641736 0 0 0 0.0312,-0.0625 c 0.29929,-0.34534 0.58201,-0.78633 0.75,-1.28125 0.008,-0.0233 0.0238,-0.039 0.0312,-0.0625 l -0.0312,0 c 0.1268,-0.37204 0.28121,-0.84625 0.28125,-1.40625 -4e-5,-0.48991 -0.10126,-0.97667 -0.28125,-1.4375 -0.005,-0.0133 -0.0265,-0.018 -0.0312,-0.0312 -0.008,-0.0192 0.008,-0.0435 0,-0.0625 l -0.0312,0 c -0.18099,-0.47633 -0.43763,-0.91741 -0.84375,-1.3125 -0.0181,-0.0176 -0.0126,-0.0451 -0.0312,-0.0625 l -0.0312,0.0312 c -0.42769,-0.40804 -0.87611,-0.65124 -1.3125,-0.8125 l 0,-0.0312 c -0.0182,-0.007 -0.0442,0.007 -0.0625,0 -0.0109,-0.004 -0.0203,-0.0271 -0.0312,-0.0312 -0.51511,-0.19701 -1.08993,-0.31247 -1.6875,-0.3125 z m -27.09375,0.90625 c -1.244173,2e-5 -2.43822,0.097 -3.59375,0.40625 -1.111709,0.29753 -2.125677,0.77661 -3,1.40625 -0.0075,0.005 -0.02379,-0.005 -0.03125,0 l 0,0.0312 c -0.897408,0.64198 -1.651322,1.46372 -2.15625,2.4375 a 1.9641736,1.9641736 0 0 0 0,0.0312 c -0.495559,0.99113 -0.750003,2.11168 -0.75,3.28125 -2e-6,1.06392 0.142122,2.07707 0.5,3 a 1.9641736,1.9641736 0 0 0 0.03125,0 c 0.361021,0.91208 0.92394,1.67396 1.5625,2.3125 0.6288,0.62881 1.382401,1.2386 2.28125,1.75 a 1.9641736,1.9641736 0 0 0 0.03125,0 c 0.817965,0.44366 1.770804,0.89966 2.84375,1.375 a 1.9641736,1.9641736 0 0 0 0,0.0312 c 0.959778,0.41506 1.728757,0.74938 2.28125,1.03125 0.526407,0.26859 0.910653,0.53504 1.125,0.71875 a 1.9641736,1.9641736 0 0 0 0.03125,0 c 0.207357,0.17162 0.227438,0.24086 0.21875,0.21875 a 1.9641736,1.9641736 0 0 0 0.03125,0.0937 c 0.03055,0.0688 0.06249,0.22201 0.0625,0.46875 -6e-6,0.24648 -0.05804,0.48957 -0.15625,0.71875 l 0.03125,0 c -0.08198,0.18581 -0.151902,0.24086 -0.34375,0.40625 -0.136408,0.11692 -0.365073,0.26331 -0.6875,0.375 -0.01141,0.004 -0.01959,-0.004 -0.03125,0 -0.299999,0.0895 -0.726061,0.15625 -1.28125,0.15625 -0.621467,0 -0.966313,-0.0846 -1.1875,-0.1875 -0.277546,-0.1459 -0.469398,-0.30662 -0.59375,-0.46875 -0.170761,-0.23643 -0.313686,-0.51073 -0.40625,-0.90625 C 88.111327,272.50978 88.062497,272 88.0625,271.4375 a 1.9641736,1.9641736 0 0 0 -1.96875,-1.96875 c -0.413825,2e-5 -0.864206,0.0855 -1.3125,0.21875 -0.01039,0.003 -0.02087,-0.003 -0.03125,0 -0.557135,0.15806 -1.044001,0.41645 -1.5,0.78125 A 1.9641736,1.9641736 0 0 0 83.21875,270.5 c -0.499291,0.42047 -0.865749,0.95025 -1.125,1.46875 A 1.9641736,1.9641736 0 0 0 82.0625,272 c -0.352821,0.73279 -0.437503,1.45565 -0.4375,2.1875 -3e-6,0.99409 0.253918,1.99629 0.75,2.84375 0.457129,0.76188 1.108551,1.47249 1.9375,2 a 1.9641736,1.9641736 0 0 0 0.03125,0.0312 c 0.785678,0.48212 1.686596,0.79269 2.65625,1 0.01379,0.003 0.01743,0.0283 0.03125,0.0312 l 0,-0.0312 c 0.971418,0.21345 2.035374,0.34375 3.15625,0.34375 1.346031,0 2.57984,-0.16094 3.71875,-0.46875 1.161324,-0.30969 2.252398,-0.79428 3.1875,-1.5 0.951046,-0.73573 1.694599,-1.699 2.1875,-2.71875 0.524244,-1.08469 0.74998,-2.28844 0.75,-3.5625 -2e-5,-1.00516 -0.131427,-1.98791 -0.46875,-2.90625 -0.325481,-0.88596 -0.84108,-1.69034 -1.5,-2.375 -0.0095,-0.01 -0.02168,-0.0213 -0.03125,-0.0312 -0.62761,-0.65484 -1.398915,-1.24796 -2.28125,-1.75 C 95.2472,264.80768 94.597881,264.53064 94,264.25 a 1.9641736,1.9641736 0 0 0 0.34375,0.0312 c 1.245378,3e-5 2.471465,-0.34446 3.40625,-1.15625 0.913064,-0.796 1.437476,-2.05472 1.4375,-3.21875 -2.2e-5,-0.74043 -0.176156,-1.58293 -0.59375,-2.34375 -0.0039,-0.007 0.0039,-0.0241 0,-0.0312 l -0.03125,0 c -0.432817,-0.77745 -1.052525,-1.37108 -1.71875,-1.8125 -0.0076,-0.005 -0.02364,0.005 -0.03125,0 -0.705827,-0.47858 -1.504567,-0.8522 -2.40625,-1.09375 -0.945651,-0.25327 -1.931132,-0.34373 -3,-0.34375 z m -0.5,5.75 c 0.761891,10e-6 0.846431,0.10409 1,0.3125 a 1.9641736,1.9641736 0 0 0 0.03125,0.0312 c 0.220045,0.2917 0.43749,0.87348 0.4375,1.9375 a 1.9641736,1.9641736 0 0 0 0.71875,1.5 c -0.102586,-0.0442 -0.176232,-0.0809 -0.28125,-0.125 -0.868278,-0.35751 -1.588522,-0.66907 -2.1875,-0.9375 -0.01101,-0.005 -0.02035,0.005 -0.03125,0 -0.532622,-0.2569 -0.94164,-0.49477 -1.15625,-0.65625 -0.01543,-0.0124 -0.01723,-0.0192 -0.03125,-0.0312 -0.127443,-0.10924 -0.196028,-0.21218 -0.25,-0.3125 -0.05119,-0.10603 -0.09375,-0.21607 -0.09375,-0.46875 -3e-6,-0.25777 0.03104,-0.42272 0.09375,-0.59375 0.05113,-0.13944 0.07761,-0.23039 0.125,-0.28125 0.0065,-0.007 0.02499,-0.0253 0.03125,-0.0312 0.06922,-0.059 0.179391,-0.10378 0.4375,-0.1875 0.252633,-0.0819 0.660412,-0.15624 1.15625,-0.15625 z m 19,0.0937 c 0.87787,10e-6 0.96459,0.12294 1.125,0.375 0.20369,0.3201 0.49999,1.33419 0.5,2.9375 -1e-5,0.78643 -0.0629,1.38645 -0.15625,1.84375 a 1.9641736,1.9641736 0 0 0 0,0.0312 c -0.0698,0.3722 -0.16378,0.61573 -0.28125,0.78125 -0.11982,0.16884 -0.17497,0.17321 -0.28125,0.21875 a 1.9641736,1.9641736 0 0 0 0,0.0312 c -0.14607,0.0644 -0.45967,0.12501 -0.875,0.125 -0.85792,10e-6 -1.00349,-0.15113 -1.1875,-0.40625 -0.18158,-0.26776 -0.46876,-1.12307 -0.46875,-2.59375 -1e-5,-1.58689 0.27937,-2.57463 0.5,-2.9375 0.18601,-0.29415 0.2697,-0.40624 1.125,-0.40625 z m -1.53125,19.59375 3.9375,0 c 0.53569,0 0.99348,0.0509 1.40625,0.125 0.29453,0.0529 0.46877,0.11982 0.53125,0.15625 0.004,0.003 0.028,0.0292 0.0312,0.0312 0.0111,0.009 0.0134,0.0212 0.0312,0.0625 a 1.9641736,1.9641736 0 0 0 0.0312,0.0312 c 0.0494,0.10949 0.0937,0.28719 0.0937,0.6875 -1e-5,0.47525 -0.0821,0.88826 -0.21875,1.25 -0.0942,0.25491 -0.25092,0.49848 -0.53125,0.71875 -0.26631,0.20924 -0.72553,0.43919 -1.46875,0.625 a 1.9641736,1.9641736 0 0 0 -0.0312,0 c -0.64625,0.17293 -1.68704,0.28124 -3.03125,0.28125 -0.88136,-10e-6 -1.5526,-0.098 -1.9375,-0.21875 -0.48987,-0.15369 -0.75734,-0.3256 -0.84375,-0.40625 -0.13895,-0.12969 -0.21519,-0.22281 -0.28125,-0.4375 -0.0863,-0.28054 -0.125,-0.61623 -0.125,-1.0625 0,-0.58393 0.095,-0.94001 0.15625,-1.0625 0.11914,-0.23828 0.20096,-0.31605 0.28125,-0.375 0.008,-0.006 0.0239,-0.0263 0.0312,-0.0312 0.20291,-0.1278 0.42712,-0.2099 0.65625,-0.25 a 1.9641736,1.9641736 0 0 0 0.0312,0 c 0.41423,-0.0808 0.81189,-0.125 1.25,-0.125 z"
       transform="translate(0.14500537,-0.2900107)"
       inkscape:export-filename="/home/enigma/sync/src/sepigo/web/images/logo.png"
       inkscape:export-xdpi="60"
       inkscape:export-ydpi="60" />
    <g
       style="font-size:40px;font-style:normal;font-weight:normal;line-height:125%;letter-spacing:0px;word-spacing:0px;fill:#ffffff;fill-opacity:1;stroke:none;font-family:Sans"
       id="text3875"
       transform="translate(-0.87003223,-1.0150375)"
       inkscape:export-filename="/home/enigma/sync/src/sepigo/web/images/logo.png"
       inkscape:export-xdpi="60"
       inkscape:export-ydpi="60">
      <path
         d="m 90.181465,278.4241 c -1.002611,0 -1.914069,-0.0911 -2.734375,-0.27343 -0.807296,-0.16928 -1.4974,-0.42969 -2.070312,-0.78125 -0.57292,-0.36459 -1.015628,-0.80729 -1.328125,-1.32813 -0.312502,-0.53385 -0.468752,-1.15234 -0.46875,-1.85547 -2e-6,-0.53385 0.08463,-0.97656 0.253906,-1.32812 0.182289,-0.36458 0.397133,-0.65104 0.644531,-0.85938 0.260414,-0.20833 0.533851,-0.35155 0.820313,-0.42969 0.299475,-0.0911 0.566402,-0.13671 0.800781,-0.13671 -4e-6,0.70313 0.07161,1.36068 0.214844,1.97265 0.143224,0.61198 0.384109,1.15235 0.722656,1.6211 0.338536,0.45573 0.781244,0.82031 1.328125,1.09375 0.559889,0.26041 1.243482,0.39062 2.050781,0.39062 0.716137,0 1.347646,-0.0846 1.894531,-0.25391 0.546864,-0.18229 1.002593,-0.42968 1.367188,-0.74218 0.377592,-0.32552 0.66405,-0.70964 0.859375,-1.15235 0.195299,-0.45572 0.292956,-0.95051 0.292969,-1.48437 -1.3e-5,-0.49479 -0.07814,-0.91796 -0.234375,-1.26953 -0.143242,-0.36458 -0.403659,-0.70312 -0.78125,-1.01563 -0.364595,-0.31249 -0.865897,-0.6315 -1.503907,-0.95703 -0.63803,-0.32551 -1.438811,-0.69661 -2.402343,-1.11328 -1.028653,-0.45572 -1.92709,-0.89192 -2.695313,-1.30859 -0.755213,-0.42968 -1.380212,-0.89192 -1.875,-1.38672 -0.494795,-0.49478 -0.865888,-1.05468 -1.113281,-1.67969 -0.247398,-0.63801 -0.371096,-1.39321 -0.371094,-2.26563 -2e-6,-0.91144 0.175779,-1.71873 0.527344,-2.42187 0.36458,-0.70311 0.878903,-1.28904 1.542969,-1.75781 0.664057,-0.48175 1.458327,-0.84634 2.382812,-1.09375 0.924472,-0.24738 1.953117,-0.37108 3.085938,-0.3711 0.95051,2e-5 1.790353,0.0977 2.519531,0.29297 0.729154,0.19534 1.341132,0.46226 1.835937,0.80078 0.494778,0.32554 0.865871,0.71617 1.113282,1.17188 0.24738,0.44273 0.371078,0.91147 0.371093,1.40625 -1.5e-5,0.72918 -0.253921,1.31512 -0.761718,1.75781 -0.494806,0.4297 -1.204441,0.64455 -2.128907,0.64453 -1.2e-5,-1.34113 -0.27996,-2.38279 -0.839843,-3.125 -0.546887,-0.74217 -1.412771,-1.11326 -2.597657,-1.11328 -0.677091,2e-5 -1.256518,0.0781 -1.738281,0.23438 -0.481778,0.15626 -0.878913,0.37762 -1.191406,0.66406 -0.299485,0.28647 -0.520839,0.62502 -0.664063,1.01562 -0.143234,0.39065 -0.214849,0.82033 -0.214843,1.28907 -6e-6,0.50782 0.09114,0.95053 0.273437,1.32812 0.182286,0.3646 0.468744,0.70314 0.859375,1.01563 0.403639,0.31251 0.917962,0.6185 1.542969,0.91796 0.638012,0.28648 1.39973,0.612 2.285156,0.97657 1.054676,0.44272 1.959623,0.87891 2.714844,1.30859 0.755194,0.4297 1.373683,0.89845 1.855469,1.40625 0.494776,0.50782 0.859359,1.08074 1.09375,1.71875 0.234358,0.63803 0.351546,1.3737 0.351562,2.20703 -1.6e-5,1.04167 -0.188818,1.95313 -0.566406,2.73438 -0.37762,0.78125 -0.911473,1.4388 -1.601563,1.97265 -0.690117,0.52084 -1.52345,0.91146 -2.5,1.17188 -0.963552,0.26041 -2.03777,0.39062 -3.222656,0.39062"
         style="font-variant:normal;font-stretch:normal;fill:#ffffff;stroke:none;font-family:Droid Serif;-inkscape-font-specification:Droid Serif"
         id="path4421"
         inkscape:connector-curvature="0" />
      <path
         d="m 120.86506,257.42801 c -2e-5,0.28648 -0.0456,0.55991 -0.13672,0.82031 -0.0782,0.24742 -0.20184,0.46877 -0.37109,0.66406 -0.16929,0.18231 -0.39065,0.33205 -0.66407,0.44922 -0.26043,0.10419 -0.57293,0.15627 -0.9375,0.15625 -2e-5,-0.15623 -0.0195,-0.31248 -0.0586,-0.46875 -0.0391,-0.15623 -0.1107,-0.29946 -0.21484,-0.42968 -0.0912,-0.14321 -0.22138,-0.25389 -0.39063,-0.33204 -0.16929,-0.0911 -0.39064,-0.13669 -0.66406,-0.13671 -0.33856,2e-5 -0.64455,0.0391 -0.91797,0.11718 -0.27345,0.0781 -0.54038,0.20185 -0.80078,0.3711 0.45571,0.55991 0.82681,1.22397 1.11328,1.99218 0.29946,0.75523 0.4492,1.70575 0.44922,2.85157 -2e-5,0.98959 -0.14976,1.90756 -0.44922,2.7539 -0.2995,0.83335 -0.74871,1.556 -1.34766,2.16797 -0.58595,0.61199 -1.33465,1.09376 -2.24609,1.44531 -0.89845,0.33855 -1.95314,0.50782 -3.16406,0.50782 -0.15626,0 -0.33204,0 -0.52735,0 -0.19532,-0.013 -0.39063,-0.0195 -0.58593,-0.0195 -0.19533,-0.013 -0.37762,-0.026 -0.54688,-0.0391 -0.16928,-0.026 -0.306,-0.0456 -0.41015,-0.0586 -0.26043,0.13022 -0.50783,0.27344 -0.74219,0.42969 -0.23438,0.15625 -0.44272,0.33203 -0.625,0.52734 -0.16928,0.19532 -0.306,0.41667 -0.41016,0.66406 -0.10417,0.2474 -0.15625,0.52084 -0.15625,0.82032 0,0.32552 0.0586,0.58594 0.17578,0.78125 0.1302,0.19531 0.30599,0.35156 0.52735,0.46875 0.22134,0.10417 0.48176,0.17578 0.78125,0.21484 0.31249,0.026 0.64452,0.0391 0.99609,0.0391 l 4.53125,0 c 1.1979,10e-6 2.21353,0.14974 3.04688,0.44922 0.83331,0.29948 1.51039,0.71615 2.03125,1.25 0.53383,0.52084 0.91794,1.15235 1.15234,1.89453 0.24738,0.72917 0.37107,1.52344 0.37109,2.38281 -2e-5,1.14583 -0.21486,2.18099 -0.64453,3.10547 -0.41668,0.92448 -1.06121,1.70573 -1.93359,2.34375 -0.87241,0.65104 -1.97918,1.15234 -3.32031,1.50391 -1.32814,0.35155 -2.89715,0.52733 -4.70704,0.52734 -2.78646,-10e-6 -4.86979,-0.51433 -6.25,-1.54297 -1.38021,-1.02865 -2.07031,-2.46094 -2.07031,-4.29687 0,-0.78125 0.13672,-1.46485 0.41016,-2.05078 0.27343,-0.58594 0.63802,-1.08724 1.09375,-1.50391 0.46874,-0.41666 1.0026,-0.75521 1.60156,-1.01562 0.59895,-0.26042 1.23046,-0.44922 1.89453,-0.56641 -0.27344,-0.11719 -0.54037,-0.27344 -0.80078,-0.46875 -0.26042,-0.19531 -0.4948,-0.42968 -0.70312,-0.70312 -0.20834,-0.27344 -0.37761,-0.58594 -0.50782,-0.9375 -0.13021,-0.35156 -0.19531,-0.74219 -0.19531,-1.17188 0,-0.79427 0.20833,-1.47786 0.625,-2.05078 0.41666,-0.58593 1.08072,-1.15234 1.99219,-1.69922 -0.57292,-0.23437 -1.08725,-0.55338 -1.54297,-0.95703 -0.44271,-0.41666 -0.82032,-0.88541 -1.13281,-1.40625 -0.29949,-0.53384 -0.53386,-1.11327 -0.70313,-1.73828 -0.15625,-0.62499 -0.23438,-1.26952 -0.23437,-1.9336 -1e-5,-1.15883 0.15624,-2.19399 0.46875,-3.10546 0.31249,-0.91144 0.78124,-1.68618 1.40625,-2.32422 0.62499,-0.638 1.40624,-1.12628 2.34375,-1.46485 0.93749,-0.33852 2.03775,-0.50779 3.30078,-0.50781 0.48176,2e-5 0.95702,0.0391 1.42578,0.11719 0.46874,0.0651 0.89842,0.16278 1.28906,0.29297 0.40363,0.11721 0.76171,0.25392 1.07422,0.41015 0.32551,0.15627 0.58592,0.31903 0.78125,0.48828 0.1953,-0.20831 0.42316,-0.43617 0.68359,-0.68359 0.2604,-0.26039 0.55337,-0.49477 0.87891,-0.70312 0.3255,-0.22134 0.67707,-0.40363 1.05469,-0.54688 0.3906,-0.14321 0.80727,-0.21482 1.25,-0.21484 0.40362,2e-5 0.74868,0.0586 1.03515,0.17578 0.29946,0.10419 0.54686,0.25393 0.74219,0.44922 0.19529,0.18231 0.33852,0.40366 0.42969,0.66406 0.10414,0.24742 0.15623,0.50783 0.15625,0.78125 m -16.875,24.12109 c -1e-5,0.58594 0.0781,1.13281 0.23437,1.64063 0.15625,0.5078 0.42969,0.944 0.82032,1.30859 0.39062,0.36458 0.91796,0.65104 1.58203,0.85938 0.66405,0.20832 1.5039,0.31249 2.51953,0.3125 1.43228,-1e-5 2.61066,-0.12371 3.53516,-0.3711 0.93748,-0.23438 1.67967,-0.56641 2.22656,-0.99609 0.54686,-0.42969 0.93097,-0.94402 1.15234,-1.54297 0.22134,-0.58594 0.33202,-1.23047 0.33203,-1.93359 -1e-5,-0.61198 -0.0912,-1.1198 -0.27343,-1.52344 -0.16929,-0.39063 -0.42971,-0.70313 -0.78125,-0.9375 -0.33856,-0.22136 -0.76174,-0.37761 -1.26954,-0.46875 -0.50782,-0.0911 -1.09376,-0.13672 -1.75781,-0.13672 l -3.92578,0 c -0.5599,0 -1.10678,0.0521 -1.64062,0.15625 -0.52084,0.0911 -0.98959,0.27344 -1.40625,0.54688 -0.40366,0.27343 -0.72918,0.65755 -0.97657,1.15234 -0.2474,0.49479 -0.3711,1.13932 -0.37109,1.93359 m 2.32422,-18.0664 c -10e-6,1.70574 0.27994,2.95574 0.83984,3.75 0.57291,0.79428 1.5039,1.19141 2.79297,1.1914 0.65103,1e-5 1.19791,-0.0976 1.64063,-0.29297 0.45571,-0.1953 0.82681,-0.49478 1.11328,-0.89843 0.28644,-0.40364 0.48826,-0.91796 0.60547,-1.54297 0.13019,-0.63801 0.19529,-1.39322 0.19531,-2.26563 -2e-5,-1.79686 -0.27345,-3.12498 -0.82031,-3.98437 -0.54689,-0.85936 -1.47137,-1.28904 -2.77344,-1.28906 -1.28907,2e-5 -2.21355,0.44272 -2.77344,1.32812 -0.54688,0.87241 -0.82032,2.20705 -0.82031,4.00391"
         style="font-variant:normal;font-stretch:normal;fill:#ffffff;stroke:none;font-family:Droid Serif;-inkscape-font-specification:Droid Serif"
         id="path4423"
         inkscape:connector-curvature="0" />
    </g>
  </g>
</svg>
